<?xml version="1.0" encoding="UTF-8" standalone="no"?>
<svg
   version="1.1"
   style="display: block;"
   viewBox="0 0 1864 1868"
   width="466"
   height="467"
   preserveAspectRatio="none"
   id="svg269"
   sodipodi:docname="IMG_8294 2.svg"
   inkscape:version="1.2.2 (b0a8486541, 2022-12-01)"
   xmlns:inkscape="http://www.inkscape.org/namespaces/inkscape"
   xmlns:sodipodi="http://sodipodi.sourceforge.net/DTD/sodipodi-0.dtd"
   xmlns="http://www.w3.org/2000/svg"
   xmlns:svg="http://www.w3.org/2000/svg">
  <sodipodi:namedview
     id="namedview271"
     pagecolor="#ffffff"
     bordercolor="#000000"
     borderopacity="0.25"
     inkscape:showpageshadow="2"
     inkscape:pageopacity="0.0"
     inkscape:pagecheckerboard="0"
     inkscape:deskcolor="#d1d1d1"
     showgrid="false"
     inkscape:zoom="1.219007"
     inkscape:cx="286.70876"
     inkscape:cy="333.05796"
     inkscape:window-width="2048"
     inkscape:window-height="1080"
     inkscape:window-x="0"
     inkscape:window-y="0"
     inkscape:window-maximized="1"
     inkscape:current-layer="svg269" />
  <defs
     id="defs173">
    <linearGradient
       id="Gradient1"
       gradientUnits="userSpaceOnUse"
       x1="916.436"
       y1="927.775"
       x2="932.875"
       y2="886.551">
      <stop
         class="stop0"
         offset="0"
         stop-opacity="1"
         stop-color="rgb(90,3,0)"
         id="stop158"
         style="stop-color:#0c1c39;stop-opacity:1;" />
      <stop
         class="stop1"
         offset="1"
         stop-opacity="1"
         stop-color="rgb(56,10,22)"
         id="stop160" />
    </linearGradient>
    <linearGradient
       id="Gradient2"
       gradientUnits="userSpaceOnUse"
       x1="513.78"
       y1="1089.25"
       x2="402.797"
       y2="1140.65">
      <stop
         class="stop0"
         offset="0"
         stop-opacity="1"
         stop-color="rgb(50,13,27)"
         id="stop163"
         style="stop-color:#0c1c39;stop-opacity:1;" />
      <stop
         class="stop1"
         offset="1"
         stop-opacity="1"
         stop-color="rgb(10,29,55)"
         id="stop165" />
    </linearGradient>
    <linearGradient
       id="Gradient3"
       gradientUnits="userSpaceOnUse"
       x1="390.022"
       y1="1065.92"
       x2="380.262"
       y2="1063.15">
      <stop
         class="stop0"
         offset="0"
         stop-opacity="1"
         stop-color="rgb(52,16,23)"
         id="stop168"
         style="stop-color:#0c1c39;stop-opacity:1;" />
      <stop
         class="stop1"
         offset="1"
         stop-opacity="1"
         stop-color="rgb(39,20,37)"
         id="stop170" />
    </linearGradient>
  </defs>
  <rect
     style="fill:#0c1c39;fill-opacity:1;stroke:#0c1c39;stroke-width:400;stroke-linecap:round;stroke-linejoin:round;stroke-dasharray:none;stroke-opacity:1"
     id="rect2817"
     width="1462.5073"
     height="1468.4119"
     x="201.98323"
     y="202.35793"
     inkscape:label="background" />
  <g
     id="trainer"
     style="display:inline;fill:#b45150;fill-opacity:1"
     inkscape:label="trainer">
    <path
       fill="#b45150"
       d="m 585.4548,842.40839 c 8.265,-0.173 16.571,0.061 24.84,0.218 -11.989,25.188 -28.268,54.513 -42.103,78.929 58.83,50.81 79.961,105.08991 81.156,181.50991 11.702,1.85 34.446,7.25 45.839,10.22 20.028,-32.32 46.692,-53.2 86.064,-55.14 26.425,-1.27 52.243,8.19 71.603,26.21 20.475,18.77 32.562,44.96 33.551,72.71 2.164,53.96 -34.691,100.35 -89.625,105.85 -8.307,0.83 -16.394,1.03 -24.734,1.29 l -5.606,11.09 3.168,2.05 c 30.02,19.45 25.951,65.22 -11.013,65.79 -30.311,0.47 -65.421,1.48 -95.453,-1.42 -21.913,-2.12 -28.61,-42.4 -12.741,-56.12 12.2,-10.56 25.753,-9.41 40.73,-9.64 8.22,-16.74 14.616,-27.41 20.356,-45.64 -14.674,-13.78 -22.583,-33.11 -27.387,-52.19 -13.959,-1.69 -32.717,-6.4 -47.985,-8.8 -27.964,73.59 -99.505,129.47 -177.991,136.2 -7.85,0.67 -15.661,0.99 -23.529,1.24 -16.351,45.92 -34.516,66.83 -73.443,95.5 -1.271,4.47 -1.502,2.44 0.263,6.35 1.891,1.36 3.581,2.08 5.934,2.02 195.38151,1.6855 195.28166,1.4004 343.323,2.26 3.8482,0.011 13.243,5.11 17.41,7.69 16.95,9.97 29.833,31.66 30.446,51.22 0.356,11.34 3.057,27.93 -10.588,28.44 -26.038,0.99 -54.308,0.61 -80.186,0.58 l -157.528,-0.05 -281.592,0.07 c -51.364,0.04 -102.748,0.21 -154.100997,-0.09 -11.206,-1.12 -22.2751,1.7 -22.2423,-13.28 0.1044,-47.7 20.8603,-74.04 68.473297,-76.05 7.776,-10.13 22.77,-35.48 29.16,-47.05 -9.007,-10.18 -19.317,-27.87 -24.754,-40.21 -18.203,-40.79 -19.41,-87.15 -3.354,-128.83 21.372,-55.01 52.542,-78.59 104.149,-101.18 0.867,-27.21 3.289,-46.73 12.25,-72.88 18.126,-53.81391 57.289,-97.98591 108.545,-122.42991 50.151,-24.116 107.812,-27.388 160.369,-9.099 8.68,-15.63 17.259,-31.315 25.736,-47.056 8.942,0.311 17.27,0.616 26.242,0.403 -40.204,75.203 -83.47,148.95198 -124.032,223.99191 -4.635,8.57 -8.184,14.82 -9.982,24.53 0.896,5.83 8.345,10.77 13.689,12.17 22.535,5.9 45.672,9.42 68.456,14.46 l 89.272,18.86 c 29.368,6.37 58.522,13.38 88.206,18.12 0.637,-7.56 1.147,-13 2.525,-20.42 -10.266,-1.9 -22.688,-5.23 -33.227,-7.55 l -87.038,-19.03 -66.089,-13.9 c -15.513,-3.32 -31.619,-6.3 -46.491,-11.72 5.091,-14.93 22.377,-44.92 30.49,-59.64 18.771,-34.08993 37.719,-68.09091 56.842,-101.98991 7.864,-13.91 15.561,-27.914 23.09,-42.008 6.379,-11.999 13.011,-25.422 20.637,-36.559 z"
       id="path185"
       sodipodi:nodetypes="ccccccccccccccccccccccccccccccccsccccccccccccccccccccccccc"
       style="fill:#b45150;fill-opacity:1" />
    <path
       fill="#b45150"
       d="m 508.1978,590.65739 c -39.282,3.272 -65.223,-10.961 -95.014,-36.782 -8.514,-7.379 -16.18,-22.975 -15.038,-34.318 4.478,-44.465 43.213,-36.901 74.672,-30.72 9.458,1.828 21.09,2.876 30.303,3.215 47.18428,0.20843 103.07417,-1.45591 140.19945,-0.33936 14.024,2.105 23.89255,4.99036 33.33855,17.87636 5.547,7.606 7.702,17.167 5.954,26.417 -1.767,9.045 -6.611,15.503 -14.301,20.35 -37.71756,11.44118 -64.31969,-1.28094 -90.054,18.308 2.51105,16.60195 6.97015,30.60383 11.901,47.416 7.317,25.503 19.109,55.032 24.76,80.631 -3.747,9.614 -7.823,16.347 -13.245,25.065 -9.691,-21.277 -14.028,-39.12 -21.324,-61.118 -9.785,-29.506 -18.839,-58.513 -27.805,-88.282 -7.633,1.821 -13.443,3.828 -20.897,6.396 4.014,19.026 9.953,33.602 15.356,51.65 12.199,40.756 30.879,87.334 39.729,128.409 l -21.45,0.328 c -6.47,-13.107 -18.861,-54.025 -23.832,-70.336 -10.448,-34.282 -23.187,-70.036 -33.253,-104.166 z"
       id="path241"
       sodipodi:nodetypes="cccccccccccccccccccsc"
       style="fill:#b45150;fill-opacity:1" />
  </g>
  <g
     id="connection"
     style="display:inline"
     inkscape:label="connection">
    <path
       fill="#b45150"
       d="m 731.8438,840.83139 c 2.413,-15.415 9.816,-41.84 13.646,-57.78 l 22.565,-97.657 35.931,-157.624 c 5.094,-22.285 9.985,-44.69 15.154,-66.941 2.215,-9.286 6.374,-25.385 18.59,-25.174 12.863,0.221 15.854,26.797 18.12,36.419 4.983,21.447 9.745,42.945 14.285,64.49 4.584,20.775 16.927,68.609 18.218,87.086 -3.694,7.885 -5.301,11.178 -11.315,17.272 -12.878,-11.002 -13.37,-26.454 -17.126,-42.117 -5.373,-22.405 -8.549,-45.806 -15.25,-67.87 -2.248,-2.354 -7.101,-19.832 -7.076,-22.573 l -1.283,-1.115 c -4.605,4.244 -4.751,22.173 -8.672,23.484 -3.03,9.774 -6.19,24.927 -8.607,35.187 -5.767,24.264 -11.252,48.595 -16.456,72.986 l -34.892,152.099 c -4.042,17.394 -8.226,34.755 -12.55,52.082 -2.33,9.683 -7.496,41.682 -17.609,45.541 -10.82,4.129 -16.742,-1.582 -20.041,-11.934 -5.977,-18.751 -10.754,-37.999 -15.812,-57.142 -10.257,-39.825 -20.807,-79.573 -31.648,-119.243 -7.05,15.604 -13.422,31.504 -19.1,47.657 -7.538,20.922 -16.432,50.425 -29.001,67.646 -18.022,1.118 -44.295,0.521 -62.915,0.614 l -133.935,0.173 -137.31,0.099 -39.05,0.003 c -5.232,0.047 -15.092,0.628 -19.88,0.312 -3.277,-0.235 -6.424,-1.381 -9.084,-3.311 -6.336,-4.664 -6.56,-13.935 -1.4,-16.66 12.187,-6.435 48.876,-4.145 61.766,-4.134 l 82.837,0.06 246.575,0.136 c 2.712,-6.139 4.714,-13.101 7.142,-19.433 12.519,-32.659 24.721,-65.293 36.865,-98.106 4.211,-11.378 8.709,-24.926 23.842,-17.993 3.226,1.478 5.115,4.582 6.336,7.841 17.151,58.174 30.327,117.563 48.14,175.62 z"
       id="path1842" />
    <path
       fill="#b45150"
       d="m 958.2348,895.68839 c 3.891,0.494 6.561,0.647 8.231,4.671 4.9,11.834 7.95,27.734 10.88,40.269 l 14.82001,63.18691 61.17999,257.31 22.02,92.93 c 4.2,17.37 8.12,35.09 13.42,52.05 10.89,35.49 43.46,60.27 80.69,61.15 41.27,0.98 83.27,-0.31 124.66,0.19 14.96,0.18 35.66,0.45 50.09,-2.46 12.17,-2.52 23.54,-7.97 33.12,-15.89 20.24,-16.55 16.31,-28.26 29.62,-46.84 1.74,-1.69 6.05,-1.33 7.97,-1.17 16.27,1.36 9.25,15.49 5.85,25.82 -7.81,18.46 -18.2,32.22 -34.47,44.13 -12.49,9.06 -26.87,15.17 -42.06,17.86 -24.63,4.52 -66.26,2.27 -92.25,2.09 -62.79,-0.44 -131.57,11.83 -171.47,-49.67 -19.62,-30.23 -24.79,-68.67 -32.93,-103.51 l -27.3,-115.12 -52.12,-219.46 c -6.3,-27.34891 -18.367,-67.27191 -19.339,-96.15191 -0.151,-4.494 5.696,-9.026 9.388,-11.385 z"
       id="path255" />
  </g>
  <g
     id="light"
     style="display:inline"
     inkscape:label="light">
    <path
       fill="#b45150"
       d="m 1405.9258,496.22539 c 1.34,-0.075 2.49,-0.133 3.83,-0.151 67.96,-1.244 133.5,25.238 181.52,73.347 50.74,50.078 74.92,113.022 75.17,183.866 -0.04,51.991 -15.93,102.735 -45.54,145.465 -24.45,35.676 -48.13,64.267 -62.39,106.64291 -5.02,15.19 -8.6,30.82 -10.7,46.69 -2.91,22.37 -0.94,44.87 -17.99,61.77 -5.39,5.41 -12.16,9.25 -19.57,11.11 -13.69,3.57 -69.42,1.67 -87.25,1.57 l -62.48,0.43 c -11.97,0.07 -28.35,1.05 -39.79,-1.33 -40.07,-8.35 -35.43,-54.97 -40.75,-85.95 -2.5,-14.93 -6.63,-29.53 -12.29,-43.55993 -16.3,-40.61398 -43.62,-72.06598 -66.27,-108.36198 -23.23,-36.961 -36.5,-79.312 -38.49,-122.924 -6.31,-143.152 99.32,-261.859 242.99,-268.614 z"
       id="path217"
       style="display:inline" />
    <path
       fill="#0c1c39"
       d="m 1404.8658,520.22339 c 73.06,-4.828 149.92,33.515 193.21,92.213 57.9,78.499 60.17,190.473 4.31,270.598 -32.7,45.202 -67.25,95.542 -76.38,151.87091 -11.12,68.52 5.53,70.06 -69.85,68.55 0.21,-30.31 0.26,-60.62 0.16,-90.93 0.03,-19.71993 -1.06,-40.71391 2.54,-60.15291 6.52,-35.189 53.89,-145.887 50.49,-168.704 -1.26,-8.5 -7.11,-15.084 -14.02,-19.788 -20.68,-14.08 -31,12.642 -47.25,14.578 -8.21,0.977 -18.4,-10.245 -24.84,-14.876 -1.43,-0.666 -2.9,-1.26 -4.39,-1.781 -14.91,-5.228 -22.45,10.466 -37.13,17.486 l -1.3,0.617 c -15.07,-8.257 -33.1,-29.74 -52.21,-12.967 -18.5,16.231 -1.55,51.565 5.1,70.856 l 22.17,65.964 c 4.58,13.728 13.09,37.417 14.95,50.951 2.06,15.035 1.62,39.10698 1.72,54.92691 0.29,31.34 0.32,62.68 0.1,94.02 -13.23,0 -26.44,0.79 -39.71,0.22 -24.65,-1.06 -23.73,-26.18 -25.95,-45.3 -1.29,-12.1 -3.23,-24.12 -5.8,-36.01 -22.49,-101.74091 -104.48,-138.16291 -113.71,-254.78391 -4.55,-60.749 15.06,-120.839 54.56,-167.217 43.59,-50.66 96.95,-75.419 163.23,-80.341 z"
       id="path219" />
    <path
       fill="#b45150"
       d="m 1376.4458,560.10139 c 13.88,-0.371 22.47,11.94 10.16,19.636 -10.44,6.529 -27.73,9.983 -39.92,15.357 -25.4,11.194 -47.86,29.415 -64.13,51.944 -6.56,9.09 -11.52,20.075 -20.19,27.694 -3.72,0.857 -9.35,0.137 -12.44,-1.841 -9.99,-7.46 3.44,-26.044 8.43,-33.119 26.95,-38.178 71,-71.905 118.09,-79.671 z"
       id="path221" />
    <path
       fill="#b45150"
       d="m 1238.3658,695.62939 c 4.94,0.136 10.54,1.532 11.96,6.696 3.37,12.272 0.74,27.094 -11.43,32.46 -19.82,-1.01 -14.43,-31.472 -0.53,-39.156 z"
       id="path223" />
    <path
       fill="#b45150"
       d="m 1478.8358,1147.2953 c 41.33,0.17 56.57,0.79 54.95,48.17 -0.48,28.6 1.74,57.58 -1.39,85.98 -2.25,20.36 -25.07,40.31 -44.51,43.23 -1.95,4.89 -3.98,9.56 -6.83,14 -10.87,17.07 -28.26,28.95 -48.12,32.88 -23.14,4.67 -46.5,1.1 -66.16,-12.14 -13.41,-11.43 -18.71,-20.01 -27.83,-34.81 -24.81,-9.37 -42.1,-21.35 -42.51,-51.06 -0.48,-34.37 -1.12,-69.77 1.21,-103.93 0.64,-9.25 13.55,-21.22 22.8,-21.06 18.33,-1.72 37.6,-1.08 56.33,-1.07 z"
       id="path227" />
    <path
       fill="#b45150"
       d="m 1634.5058,973.59339 c 1.57,0.023 3.18,0.054 4.72,0.361 9.6,1.909 59.82,54.88091 66.15,64.32091 1.84,2.74 3.93,5.77 3.15,9.21 -1,4.41 -5.12,7.22 -8.63,9.6 -0.27,0.05 -0.54,0.13 -0.82,0.16 -5.27,0.46 -9.85,-3.12 -13.63,-6.31 -9.5,-8.03 -58.78,-56.48993 -58.71,-65.88993 0.04,-5.235 4.12,-8.35798 7.77,-11.45198 z"
       id="path257" />
    <path
       fill="#b45150"
       d="m 1189.6558,973.58839 c 8.15,1.224 9.64,4.423 14.01,10.78998 -6.57,15.067 -55.99,64.77693 -71.06,72.90693 -4.51,-0.51 -8.8,-3.48 -11.18,-7.28 -1.16,-1.85 -1.89,-6.58 -0.78,-8.06 13.46,-18.04 51.08,-57.96193 69.01,-68.35691 z"
       id="path259" />
    <path
       fill="#b45150"
       d="m 1693.9658,446.67439 c 0.51,-0.043 1.02,-0.103 1.53,-0.128 3.32,-0.166 8.88,1.816 11.05,4.449 1.91,2.306 2.17,5.261 1.56,8.071 -2.86,13.156 -54.38,62.069 -67.35,70.03 -1.86,0.623 -3.05,0.612 -5,0.822 -24.34,-8.702 7.82,-34.778 16.47,-42.93 13.35,-12.578 26.93,-29.945 41.74,-40.314 z"
       id="path261" />
    <path
       fill="#b45150"
       d="m 1411.3758,337.78939 c 3.52,-0.012 11.28,0.835 12.56,5.114 3.4,12.694 2.6,27.22 2.49,40.535 -0.14,17.664 0.72,36.205 -1.15,53.724 -0.4,3.753 -5.39,6.09 -8.28,7.621 -0.37,0.006 -0.74,0.029 -1.11,0.017 -3.78,-0.128 -7.53,-1.022 -10.08,-4.008 -5.2,-6.117 -4.3,-80.729 -2.65,-91.518 0.89,-5.826 3.59,-8.124 8.22,-11.485 z"
       id="path263" />
    <path
       fill="#b45150"
       d="m 1017.3658,743.33639 c 23.73,-1.116 47.91,-0.674 71.59,-0.877 7.92,-0.067 21.74,-0.206 22.99,9.134 1.45,10.835 -2.52,12.965 -11.47,14.349 -14.15,0.291 -77.17,3.159 -86.43,-1.245 -3.25,-1.544 -6.07,-4.426 -7.2,-7.873 -0.94,-2.851 -0.53,-6.238 1.18,-8.732 2.3,-3.349 5.55,-4.184 9.34,-4.756 z"
       id="path265" />
    <path
       fill="#b45150"
       d="m 1715.6613,743.33727 c 23.73,-1.116 47.91,-0.674 71.59,-0.877 7.92,-0.067 21.74,-0.206 22.99,9.134 1.45,10.835 -2.52,12.965 -11.47,14.349 -14.15,0.291 -77.17,3.159 -86.43,-1.245 -3.25,-1.544 -6.07,-4.426 -7.2,-7.873 -0.94,-2.851 -0.53,-6.238 1.18,-8.732 2.3,-3.349 5.55,-4.184 9.34,-4.756 z"
       id="path265-6"
       style="display:block" />
    <path
       fill="#b45150"
       d="m 1128.1158,446.70439 c 13.22,0.011 27.43,20.934 37.3,29.591 6.73,7.834 16.14,14.952 22.55,22.931 9.62,11.971 21.03,17.545 6.46,29.552 -1.79,0.53 -3.92,1.276 -5.8,1.046 -6.31,-0.775 -54.81,-51.308 -60.99,-58.706 -3.28,-3.943 -8.45,-9.936 -7.62,-15.333 0.68,-4.45 4.73,-6.696 8.1,-9.081 z"
       id="path267" />
  </g>
  <path
     fill="#b45150"
     d="m 941.9208,597.53539 c 1.074,5.108 -28.253,162.081 -31.183,178.22 23.911,1.71 54.688,0.275 80.60801,1.339 -10.50001,13.593 -24.72001,41.188 -34.75301,56.851 l -76.698,120.559 c -16.275,25.79198 -31.943,52.24091 -49.541,77.16091 l -0.349,-0.25 c -2.828,-5.72 30.173,-158.31591 33.84,-177.57291 -24.96,-1.443 -53.36,-0.24 -78.913,-0.725 14.313,-26.143 33.947,-55.823 49.618,-81.7 35.192,-58.328 70.985,-116.292 107.371,-173.882 z"
     id="power"
     style="display:inline"
     inkscape:label="power" />
  <g
     id="g3057"
     style="display:inline"
     inkscape:label="masks">
    <path
       fill="rgb(23,23,45)"
       d="m 597.8718,1161.5453 c 6.063,0.78 9.159,1.63 15.029,3.21 -16.738,30.95 -29.05,54.25 -58.546,76.71 0.415,-11.85 33.446,-48.84 44.501,-55.31 1.405,-0.83 10.938,-18.14 9.137,-20.95 -4.077,-0.73 -6.968,-0.74 -10.121,-3.66 z"
       id="path191"
       style="fill:#0c1c39;fill-opacity:1" />
    <path
       fill="rgb(23,23,45)"
       d="m 774.3618,1082.0953 c 1.954,-0.26 3.918,-0.44 5.887,-0.53 102.931,-4.4 116.198,154.56 4.411,158.28 3.284,-7.47 5.845,-14.82 9.437,-22.57 7.118,-15.37 17.433,-32.96 22.109,-48.91 7.572,-22.84 -14.387,-44.82 -36.989,-40.79 -22.782,4.06 -30.578,33.17 -40.122,50.98 -5.502,10.26 -8.751,19.56 -15.867,29.33 l -0.932,1.27 c -34.858,-47.81 -8.041,-116.58 52.066,-127.06 z"
       id="path199"
       style="fill:#0c1c39;fill-opacity:1" />
    <path
       fill="rgb(23,23,45)"
       d="m 555.7668,943.17339 c 1.96,1.128 6.254,5.342 8.044,7.116 43.999,43.60598 61.213,85.68591 61.673,146.86591 -18.639,-2.85 -38.53,-7.62 -57.045,-11.74 -24.239,-5.08 -58.481,-10.98 -81.348,-17.55 6.935,-14.55 14.256,-26.41 21.819,-40.36 15.045,-28.42993 30.667,-56.54291 46.857,-84.33191 z"
       id="path203"
       style="fill:#0c1c39;fill-opacity:1" />
    <path
       fill="rgb(23,23,45)"
       d="m 332.3848,1278.6953 c 21.094,13.35 53.337,21.18 77.633,26.62 l -1.561,4.01 c -15.875,41.43 -43.51,65.86 -83.037,83.49 -23.063,9.29 -43.174,11.35 -68.073,9.89 23.128,-40.52 50.68,-83.82 75.038,-124.01 z"
       id="path205"
       style="fill:#0c1c39;fill-opacity:1" />
    <path
       fill="rgb(43,12,27)"
       d="m 782.9328,1148.6553 c 1.431,0.21 2.955,0.43 4.308,0.95 3.225,1.26 6.013,3.99 6.904,7.37 2.007,7.6 -46.664,105.89 -55.701,118.7 -3.017,1.77 -5.695,1.26 -9.29,1.18 l -12.133,-0.43 c 17.031,-39.77 38.991,-80.24 57.587,-119.55 1.615,-3.42 5.183,-6.18 8.325,-8.22 z"
       id="path213"
       style="fill:#0c1c39;fill-opacity:1" />
    <path
       fill="#0c1c39"
       d="m 554.3548,1241.4653 c -10.522,8.25 -21.814,15.47 -33.719,21.56 -89.456,45.73 -203.872,7.98 -249.245,-81.65 -23.516,-46.33 -27.746,-100.07 -11.766,-149.5 15.507,-47.86093 49.548,-87.51091 94.511,-110.08191 43.854,-22.197 94.728,-26.065 141.434,-10.754 -11.933,19.499 -64.07582,107.90421 -70.16595,117.29741 -4.25599,-0.7601 -8.51827,-0.3356 -12.64719,0.8234 -6.98031,1.9593 -12.83774,4.8837 -18.38096,8.8665 -3.78275,2.7179 -8.06791,6.1508 -11.13125,9.2972 -3.78528,3.8879 -7.22512,8.895 -10.48221,14.9821 -2.30247,4.303 -4.64689,10.5683 -6.15456,17.9877 -1.25657,6.1837 -1.29913,12.9364 -0.17087,20.155 0.71585,4.5799 1.66368,9.3853 3.76534,13.9869 1.46727,3.2126 3.00667,6.6482 4.98975,9.6704 2.49099,3.7963 5.50671,7.1085 7.97414,10.4114 3.72717,4.1527 10.23392,9.839 18.91463,13.8583 8.37234,3.8765 18.83672,6.4794 29.40891,6.2836 8.35531,-0.1547 18.14632,-2.6237 26.10767,-6.4668 7.28474,-3.5165 13.30549,-8.5287 17.49966,-12.4822 4.81861,1.1123 4.82454,1.1317 7.60339,1.6841 9.682,2.14 110.6555,21.6509 115.1715,24.1509 6.063,0.78 9.159,1.63 15.029,3.21 -16.738,30.95 -29.05,54.25 -58.546,76.71 z"
       id="path189"
       sodipodi:nodetypes="cccccccsssssssscsssccccc"
       style="display:inline" />
    <path
       fill="rgb(23,23,45)"
       d="m 1343.2058,783.18639 c 11.41,3.9 25.72,20.026 39.64,19.616 12.71,-0.375 22.35,-10.889 30.34,-19.316 12.52,11.371 20.91,20.757 39.37,18.68 9.68,-1.09 26.19,-18.346 32.93,-17.317 3.1,6.636 -8.2,34.329 -10.81,42.077 l -23.63,70.861 c -4.84,14.532 -11.92,34.318 -15.11,48.859 -3.87,17.58 -2.62,46.04898 -2.5,64.89891 l -0.06,91.93 c -12.75,0.25 -25.5,0.27 -38.25,0.06 l 0.15,-87.49 c 0.04,-19.60993 1.03,-55.05191 -3.42,-72.69891 -8.44,-33.473 -22.43,-68.933 -33.26,-101.978 -5.87,-17.929 -15.17,-39.492 -15.39,-58.182 z"
       id="path225"
       style="fill:#0c1c39;fill-opacity:1" />
    <path
       fill="rgb(23,23,45)"
       d="m 1507.9358,1252.2953 1.83,-0.26 1.18,1.27 c 1.06,7.9 0.38,23.22 -2.51,30.69 -4.98,17.07 -32.9,17.81 -48.27,15.92 -24.83,-3.06 -110.68,5.64 -130.07,-3.51 -4.8,-4.58 -11.14,-12.86 -8.6,-19.8 2.78,-2.41 13.3,-3.39 17.25,-3.77 56.21,-5.42 113.04,-15.66 169.19,-20.54 z"
       id="path229"
       style="fill:#0c1c39;fill-opacity:1" />
    <path
       fill="rgb(23,23,45)"
       d="m 1332.6058,1170.2053 c 11.27,-0.85 24.26,-0.38 35.67,-0.29 41.69,0.31 83.36,-0.04 125.04,-0.25 7.37,-0.03 22.21,3.39 16.34,13.8 -5.56,4.04 -19.77,4.35 -27.16,5.01 -33.31,3.45 -66.58,7.3 -99.79,11.54 -19.98,2.47 -43.63,5.98 -63.4,6.93 -0.9,-13.95 -1.06,-21.9 0.34,-35.8 z"
       id="path231"
       style="fill:#0c1c39;fill-opacity:1" />
    <path
       fill="rgb(43,12,27)"
       d="m 1508.5158,1208.2653 1.77,0.39 c 1.25,3.26 0.78,15.46 0.76,19.72 -62.8,7.52 -126.8,17.29 -189.85,23.48 -0.47,-0.13 -1.41,-0.8 -1.88,-1.1 -1.43,-7.11 -0.69,-13.5 0.09,-20.59 15.51,-3.22 54.99,-7.1 71.67,-8.89 37.47,-4.02 80.16,-10.47 117.44,-13.01 z"
       id="path233"
       style="fill:#0c1c39;fill-opacity:1" />
    <path
       fill="rgb(43,12,27)"
       d="m 1368.8058,1323.2553 c 4.42,-0.41 9.74,-0.57 14.22,-0.53 26.61,0.24 53.53,-0.49 80.1,0.52 -4.49,6.9 -7.37,10.38 -13.22,16.03 -18.52,14.43 -51.92,14.98 -70.88,0.56 -3.94,-3 -11.25,-10.2 -11.79,-15.03 z"
       id="path235"
       style="fill:#0c1c39;fill-opacity:1" />
    <path
       fill="rgb(76,5,12)"
       d="m 836.3548,492.74439 c 2.534,12.381 6.342,25.847 8.307,38.191 -2.248,-2.354 -7.101,-19.832 -7.076,-22.573 l -1.283,-1.115 c -4.605,4.244 -4.751,22.173 -8.672,23.484 0.962,-8.93 6.36,-28.539 8.724,-37.987 z"
       id="path239"
       style="fill:#0c1c39;fill-opacity:1" />
    <path
       fill="#17172d"
       d="m 626.1778,489.35839 c -444.61467,-335.042 -222.30733,-167.521 0,0 z"
       id="path245"
       sodipodi:nodetypes="cc" />
    <path
       fill="#0c1c39"
       d="m 266.4958,1220.6953 c 15.961,16.09 29.263,31.05 46.947,45.48 -3.293,4.48 -6.1,9.34 -8.949,14.11 -22.355,37.44 -46.076,74.05 -68.164,111.65 -3.991,6.79 -7.811,13.61 -12.803,19.73 l -28.037,0.51 c -15.523,0.55 -31.05,0.13 -46.595,0.26 14.966,-27.68 29.686,-48.63 45.579,-75.08 l 42.805,-69.75 c 9.391,-15.28 19.057,-32.3 29.217,-46.91 z"
       id="path201" />
    <path
       fill="rgb(43,12,27)"
       d="m 680.1058,1298.2053 c 13.248,0.08 74.482,-2.63 82.172,2.22 2.158,1.36 3.496,3.98 3.977,6.42 0.816,4.15 -0.064,8.3 -2.301,11.81 -2.808,2.13 -5.877,1.89 -9.448,2.12 -13.673,-0.05 -77.97,1.65 -86.704,-1.34 -6.055,-5.37 -4.278,-13.34 -0.016,-19.18 3.302,-2.27 8.047,-1.87 12.32,-2.05 z"
       id="path215"
       style="fill:#0c1c39;fill-opacity:1" />
    <path
       fill="rgb(23,23,45)"
       d="m 107.1868,1436.0353 c 22.093,-1.42 56.858,-0.27 80.606,-0.42 67.661,-0.33 135.323,-0.28 202.984,0.13 l 201.144,-0.04 c 34.385,-0.01 68.743,-0.27 103.126,0.23 28.04,0.41 36.508,15.28 39.608,40.7 -9.903,0.51 -20.909,0.39 -30.899,0.49 l -425.553,-0.18 -127.882,0.01 c -23.301,0.07 -51.769996,1.34 -74.284997,-0.34 3.456,-20.54 7.949,-35.32 31.150997,-40.58 z"
       id="path195"
       style="fill:#0c1c39;fill-opacity:1" />
    <path
       fill="rgb(23,23,45)"
       d="m 428.4138,506.86539 c 17.836,-1.056 49.375,7.578 69.894,8.204 35.032,1.672 69.592,0.095 104.68,0.682 13.639,0.229 53.102,-5.017 56.761,12.811 2.591,12.622 -30.219,9.683 -38.434,9.909 -45.737,0.919 -81.543,22.987 -125.655,30.298 -19.641,3.256 -49.785,-18.724 -64.99,-30.024 -11.379,-8.458 -12.394,-21.217 -2.256,-31.88 z"
       id="path247"
       style="fill:#0c1c39;fill-opacity:1" />
    <path
       fill="rgb(23,23,45)"
       d="m 898.4118,713.65139 c -3.573,14.434 -14.334,71.015 -14.325,85.135 20.056,0.443 46.307,1.404 66.117,0.762 -9.235,16.645 -33.363,55.364 -44.304,70.97 l -3.936,2.202 c -5.718,-0.453 -10.825,-0.431 -15.379,-4.372 -1.309,-1.133 -1.094,-3.86 -1.333,-6.071 1.378,-10.137 3.945,-19.971 4.544,-30.134 -21.269,-1.702 -42.496,-0.63 -62.983,-2.378 23.162,-39.134 47.032,-77.845 71.599,-116.114 z"
       id="path251"
       style="fill:#0c1c39;fill-opacity:1" />
    <path
       fill="url(#Gradient1)"
       d="m 873.0408,922.59639 c 3.836,-19.189 7.515,-41.661 12.211,-60.319 0.239,2.211 0.024,4.938 1.333,6.071 4.554,3.941 9.661,3.919 15.379,4.372 l 3.936,-2.202 c -8.352,15.691 -23.256,34.683 -32.859,52.078 z"
       id="path253"
       style="fill:#0c1c39;fill-opacity:1" />
    <path
       fill="#0c1c39"
       d="m 225.8518,1118.6953 c 3.139,0.39 3.81,11.09 4.362,14.26 4.062,23.38 12.865,43.73 23.137,64.84 -9.308,16.34 -22.334,35.3 -32.473,51.62 -18.959,31.18 -38.29,62.13 -57.989,92.84 -5.473,-5.13 -10.807,-15.03 -13.962,-21.84 -37.247,-80.42 -2.432,-165.17 76.925,-201.72 z"
       id="path197" />
    <path
       style="fill:#0c1c39;fill-opacity:1;stroke:none;stroke-width:2;stroke-linecap:round;stroke-linejoin:round"
       d="m 455.72744,1029.2755 c -9.32783,15.8696 -13.52491,22.9249 -16.83571,29.6643 -2.6751,5.4453 -5.64235,10.3034 -9.39916,19.8189 -7.27025,18.4144 15.06059,25.106 15.06059,25.106 l 54.66252,12.6953 4.48452,-21.7468 c -5.9557,-1.5719 -22.88982,-4.065 -34.80277,-7.2765 -0.69994,-0.1887 -1.39608,-0.3771 -2.08208,-0.5671 -6.44113,-1.7846 -12.06152,-4.3571 -11.48338,-8.0844 -0.24453,-1.9286 0.031,-4.6329 2.10481,-7.914 9.23901,-14.6182 21.0542,-36.6634 21.0542,-36.6634 z"
       id="path2705"
       sodipodi:nodetypes="csscccsscscc" />
  </g>
</svg>
